<?xml version="1.0" encoding="UTF-8" standalone="no"?>
<!DOCTYPE svg PUBLIC "-//W3C//DTD SVG 1.1//EN" "http://www.w3.org/Graphics/SVG/1.1/DTD/svg11.dtd">
<svg width="100%" height="100%" viewBox="0 0 549 549" version="1.1" xmlns="http://www.w3.org/2000/svg" xmlns:xlink="http://www.w3.org/1999/xlink" xml:space="preserve" xmlns:serif="http://www.serif.com/" style="fill-rule:evenodd;clip-rule:evenodd;stroke-linejoin:round;stroke-miterlimit:2;">
    <path d="M542.7,96.8C539.1,93.2 534.8,91.4 529.9,91.4L18.3,91.4C13.4,91.4 9.1,93.2 5.4,96.8C1.8,100.4 0,104.7 0,109.6L0,438.5C0,443.4 1.8,447.7 5.4,451.3C9,454.9 13.3,456.7 18.3,456.7L529.9,456.7C534.8,456.7 539.1,454.9 542.7,451.3C546.3,447.7 548.1,443.4 548.1,438.5L548.1,109.6C548.2,104.7 546.4,100.4 542.7,96.8ZM511.6,347.2C491.4,347.2 474.2,354.3 459.9,368.6C445.6,382.9 438.5,400.1 438.5,420.3L109.6,420.3C109.6,400.1 102.5,382.9 88.2,368.6C73.9,354.3 56.7,347.2 36.5,347.2L36.5,201C56.7,201 73.9,193.9 88.2,179.6C102.5,165.3 109.6,148.1 109.6,127.9L438.5,127.9C438.5,148.1 445.6,165.3 459.9,179.6C474.2,193.9 491.4,201 511.6,201L511.6,347.2ZM342.5,195.3C335.2,183.5 325.5,173.9 313.5,166.5C301.5,159.1 288.4,155.4 274.1,155.4C259.8,155.4 246.7,159.1 234.7,166.5C222.7,173.9 213,183.5 205.7,195.3C198.4,207.1 192.7,219.9 188.7,233.6C184.7,247.3 182.7,260.8 182.7,274.1C182.7,287.4 184.7,300.9 188.7,314.6C192.7,328.3 198.4,341.1 205.7,352.9C213,364.7 222.7,374.3 234.7,381.7C246.7,389.1 259.8,392.8 274.1,392.8C288.4,392.8 301.5,389.1 313.5,381.7C325.5,374.3 335.2,364.7 342.5,352.9C349.8,341.1 355.5,328.3 359.5,314.6C363.5,300.9 365.5,287.4 365.5,274.1C365.5,260.8 363.5,247.3 359.5,233.6C355.5,219.8 349.8,207.1 342.5,195.3ZM328.9,347.2L219.3,347.2L219.3,319.8L255.8,319.8L255.8,237.6L255.2,237.6C252.7,241.4 247.5,246.8 239.5,253.9L217.5,231.1L259.8,192L292.4,192L292.4,319.9L328.9,319.9L328.9,347.2Z" style="fill:url(#_Linear1);fill-rule:nonzero;"/>
    <defs>
        <linearGradient id="_Linear1" x1="0" y1="0" x2="1" y2="0" gradientUnits="userSpaceOnUse" gradientTransform="matrix(548.2,-365.3,365.3,548.2,0,456.7)"><stop offset="0" style="stop-color:rgb(9,176,145);stop-opacity:1"/><stop offset="1" style="stop-color:rgb(97,250,129);stop-opacity:1"/></linearGradient>
    </defs>
</svg>
