<?xml version="1.0" encoding="UTF-8" standalone="no"?>
<!DOCTYPE svg PUBLIC "-//W3C//DTD SVG 1.1//EN" "http://www.w3.org/Graphics/SVG/1.1/DTD/svg11.dtd">
<svg width="100%" height="100%" viewBox="0 0 24 24" version="1.1" xmlns="http://www.w3.org/2000/svg" xmlns:xlink="http://www.w3.org/1999/xlink" xml:space="preserve" xmlns:serif="http://www.serif.com/" style="fill-rule:evenodd;clip-rule:evenodd;stroke-linejoin:round;stroke-miterlimit:2;">
    <g>
        <g>
            <path d="M21.7,5C20.7,4 19.3,3.5 17.5,3.5C17,3.5 16.5,3.6 16,3.8C15.5,4 15,4.2 14.6,4.5C14.2,4.8 13.8,5.1 13.5,5.3C13.2,5.6 12.9,5.8 12.6,6.1C12.3,5.8 12,5.5 11.7,5.3C11.4,5 11,4.8 10.6,4.5C10,4.2 9.5,3.9 9,3.8C8.5,3.6 8,3.5 7.5,3.5C5.7,3.5 4.3,4 3.3,5C2.3,6 1.8,7.4 1.8,9.1C1.8,9.6 1.9,10.2 2.1,10.8C2.3,11.4 2.5,11.9 2.7,12.2C2.9,12.6 3.2,13 3.5,13.4C3.8,13.8 4,14 4.2,14.2C4.3,14.3 4.4,14.4 4.5,14.5L12,21.7C12.1,21.8 12.3,21.9 12.5,21.9C12.7,21.9 12.9,21.8 13,21.7L20.5,14.5C22.3,12.7 23.2,10.9 23.2,9.1C23.2,7.4 22.7,6 21.7,5ZM19.4,13.4L12.5,20.1L5.5,13.4C4,11.9 3.3,10.5 3.3,9.1C3.3,8.5 3.4,7.9 3.6,7.4C3.8,6.9 4,6.5 4.3,6.2C4.6,5.9 4.9,5.7 5.3,5.5C5.7,5.3 6.1,5.2 6.4,5.1C6.7,5.1 7.1,5 7.5,5C7.9,5 8.4,5.1 8.8,5.3C9.3,5.5 9.7,5.8 10.1,6.1C10.5,6.4 10.8,6.7 11.1,7C11.4,7.3 11.6,7.5 11.8,7.7C12,7.9 12.2,8 12.5,8C12.7,8 12.9,7.9 13.1,7.7C13.3,7.5 13.5,7.2 13.8,7C14.1,6.7 14.4,6.4 14.8,6.1C15.2,5.8 15.6,5.5 16.1,5.3C16.6,5.1 17.1,5 17.5,5C17.9,5 18.3,5 18.7,5.1C19.1,5.2 19.4,5.3 19.8,5.5C20.2,5.7 20.5,5.9 20.8,6.2C21.1,6.5 21.3,6.9 21.5,7.4C21.7,7.9 21.8,8.5 21.8,9.1C21.7,10.5 20.9,11.9 19.4,13.4Z" style="fill:url(#_Linear1);fill-rule:nonzero;"/>
        </g>
    </g>
    <defs>
        <linearGradient id="_Linear1" x1="0" y1="0" x2="1" y2="0" gradientUnits="userSpaceOnUse" gradientTransform="matrix(21.4,-18.4,18.4,21.4,1.8,21.9)"><stop offset="0" style="stop-color:rgb(222,54,129);stop-opacity:1"/><stop offset="1" style="stop-color:rgb(249,110,115);stop-opacity:1"/></linearGradient>
    </defs>
</svg>
