<?xml version="1.0" encoding="UTF-8" standalone="no"?>
<!DOCTYPE svg PUBLIC "-//W3C//DTD SVG 1.1//EN" "http://www.w3.org/Graphics/SVG/1.1/DTD/svg11.dtd">
<svg width="100%" height="100%" viewBox="0 0 476 476" version="1.1" xmlns="http://www.w3.org/2000/svg" xmlns:xlink="http://www.w3.org/1999/xlink" xml:space="preserve" xmlns:serif="http://www.serif.com/" style="fill-rule:evenodd;clip-rule:evenodd;stroke-linejoin:round;stroke-miterlimit:2;">
    <g>
        <path d="M475.1,186.6C475.1,179.6 469.8,175.2 459.1,173.5L315.8,152.7L251.5,22.7C247.9,14.9 243.2,11 237.5,11C231.8,11 227.1,14.9 223.5,22.7L159.3,152.6L16,173.4C5.3,175.1 0,179.5 0,186.5C0,190.5 2.4,195.1 7.1,200.2L111,301.3L86.5,444.1C86.1,446.8 85.9,448.7 85.9,449.8C85.9,453.8 86.9,457.2 88.9,459.9C90.9,462.7 93.9,464 97.9,464C101.3,464 105.1,462.9 109.3,460.6L237.5,393.2L365.7,460.6C369.7,462.9 373.5,464 377.1,464C384.9,464 388.8,459.2 388.8,449.7C388.8,447.2 388.7,445.3 388.5,444L364,301.4L467.6,200.3C472.6,195.3 475.1,190.8 475.1,186.6ZM324.6,288.5L345.2,408.7L237.6,351.9L129.7,408.7L150.5,288.5L63.1,203.7L183.6,186L237.6,76.9L291.6,186L412,203.7L324.6,288.5Z" style="fill:url(#_Linear1);fill-rule:nonzero;"/>
    </g>
    <defs>
        <linearGradient id="_Linear1" x1="0" y1="0" x2="1" y2="0" gradientUnits="userSpaceOnUse" gradientTransform="matrix(475.1,-475.1,475.1,475.1,0,475.1)"><stop offset="0" style="stop-color:rgb(253,54,0);stop-opacity:1"/><stop offset="1" style="stop-color:rgb(255,147,0);stop-opacity:1"/></linearGradient>
    </defs>
</svg>
